<?xml version="1.0" encoding="utf-8"?>
<!-- Generator: Adobe Illustrator 15.0.0, SVG Export Plug-In . SVG Version: 6.00 Build 0)  -->
<!DOCTYPE svg PUBLIC "-//W3C//DTD SVG 1.1//EN" "http://www.w3.org/Graphics/SVG/1.1/DTD/svg11.dtd">
<svg version="1.1" id="Layer_1" xmlns="http://www.w3.org/2000/svg" xmlns:xlink="http://www.w3.org/1999/xlink" x="0px" y="0px"
	 width="250px" height="100px" viewBox="0 0 250 100" enable-background="new 0 0 250 100" xml:space="preserve">
<g>
	<path fill="#808080" d="M87.299,67.147c0-2.555-0.133-4.748-0.396-6.58c-0.264-1.832-0.613-3.429-1.045-4.791
		c-0.434-1.362-0.945-2.533-1.537-3.512s-1.166-1.929-1.721-2.846s-1.104-1.825-1.645-2.722c-0.543-0.897-1.03-1.912-1.464-3.045
		c-0.435-1.133-0.784-2.44-1.048-3.922c-0.266-1.482-0.398-3.259-0.398-5.333v-8.712c0-0.579,0.09-1.235,0.271-1.97
		c0.181-0.735,0.523-1.422,1.029-2.061c0.507-0.638,1.212-1.181,2.115-1.627c0.904-0.446,2.079-0.669,3.525-0.669
		c1.445,0,2.621,0.223,3.524,0.669c0.903,0.446,1.608,0.989,2.114,1.627c0.506,0.639,0.85,1.326,1.031,2.061
		c0.18,0.735,0.271,1.392,0.271,1.97V41.88h-4.628V25.685c0-0.579-0.066-1.054-0.198-1.428c-0.133-0.373-0.308-0.663-0.524-0.868
		c-0.217-0.204-0.464-0.349-0.74-0.434c-0.277-0.084-0.561-0.126-0.85-0.126s-0.573,0.042-0.85,0.126
		c-0.277,0.084-0.524,0.228-0.742,0.433c-0.217,0.205-0.391,0.493-0.523,0.866c-0.133,0.373-0.199,0.848-0.199,1.424v7.035
		c0,2.718,0.234,4.99,0.703,6.818c0.469,1.828,1.054,3.421,1.756,4.78c0.703,1.359,1.414,2.617,2.132,3.774s1.461,2.355,2.229,3.593
		c0.768,1.239,1.365,2.709,1.793,4.412c0.428,1.702,0.642,3.821,0.642,6.355v14.125c0,0.29-0.036,0.815-0.108,1.575
		c-0.072,0.761-0.326,1.54-0.76,2.336s-1.12,1.503-2.061,2.119c-0.939,0.616-2.277,0.923-4.012,0.923
		c-1.736,0-3.073-0.307-4.014-0.922c-0.939-0.614-1.627-1.319-2.061-2.115s-0.687-1.572-0.759-2.332s-0.108-1.283-0.108-1.573
		V55.762h4.627v20.822c0,0.29,0.012,0.633,0.037,1.03c0.023,0.398,0.107,0.777,0.252,1.139c0.145,0.362,0.374,0.669,0.688,0.922
		c0.312,0.253,0.759,0.38,1.338,0.38c0.578,0,1.023-0.126,1.337-0.38c0.313-0.253,0.542-0.56,0.687-0.922
		c0.145-0.361,0.229-0.741,0.254-1.139c0.023-0.397,0.035-0.742,0.035-1.031V67.147z"/>
	<path fill="#808080" d="M103.727,36.096l1.156,16.195l1.844-16.117l0.47-16.274h4.628l-4.628,40.478v21.99h-4.627V60.389
		l-4.628-40.488h4.628L103.727,36.096z"/>
	<path fill="#808080" d="M132.878,82.369h-4.628l-5.783-46.363v46.363h-3.471V19.901h4.627l5.785,46.363V19.901h3.47V82.369z"/>
	<path fill="#808080" d="M153.932,19.901v3.47h-4.627v58.998h-4.627V23.371h-4.628v-3.47H153.932z"/>
	<path fill="#808080" d="M165.732,48.821h4.627v-28.92h4.628v62.468h-4.628V52.292h-4.627v30.077h-4.628V19.901h4.628V48.821z"/>
	<path fill="#808080" d="M193.727,23.371h-5.785v24.293h4.627v3.47h-4.627v27.764h5.785v3.47h-10.412V19.901h10.412V23.371z"/>
	<path fill="#808080" d="M208.997,67.147c0-2.555-0.133-4.748-0.397-6.58c-0.265-1.832-0.612-3.429-1.046-4.791
		c-0.432-1.362-0.945-2.533-1.537-3.512s-1.164-1.929-1.719-2.846s-1.104-1.825-1.646-2.722c-0.542-0.897-1.029-1.912-1.463-3.045
		s-0.783-2.44-1.049-3.922c-0.266-1.482-0.397-3.259-0.397-5.333v-8.712c0-0.579,0.091-1.235,0.271-1.97
		c0.182-0.735,0.525-1.422,1.031-2.061c0.506-0.638,1.211-1.181,2.115-1.627c0.902-0.446,2.078-0.669,3.523-0.669
		c1.446,0,2.621,0.223,3.525,0.669c0.904,0.446,1.609,0.989,2.115,1.627c0.506,0.639,0.85,1.326,1.029,2.061
		c0.182,0.735,0.271,1.392,0.271,1.97V41.88h-4.627V25.685c0-0.579-0.066-1.054-0.199-1.428c-0.133-0.373-0.307-0.663-0.523-0.868
		c-0.218-0.204-0.465-0.349-0.742-0.434c-0.277-0.084-0.561-0.126-0.85-0.126s-0.572,0.042-0.85,0.126s-0.523,0.228-0.74,0.433
		s-0.393,0.493-0.524,0.866c-0.133,0.373-0.198,0.848-0.198,1.424v7.035c0,2.718,0.233,4.99,0.702,6.818
		c0.468,1.828,1.054,3.421,1.757,4.78s1.413,2.617,2.131,3.774c0.717,1.157,1.461,2.355,2.229,3.593
		c0.77,1.239,1.367,2.709,1.795,4.412c0.426,1.702,0.641,3.821,0.641,6.355v14.125c0,0.29-0.037,0.815-0.109,1.575
		c-0.072,0.761-0.324,1.54-0.758,2.336s-1.121,1.503-2.061,2.119s-2.277,0.923-4.014,0.923c-1.734,0-3.072-0.307-4.012-0.922
		c-0.94-0.614-1.627-1.319-2.061-2.115s-0.688-1.572-0.76-2.332s-0.108-1.283-0.108-1.573V55.762h4.628v20.822
		c0,0.29,0.012,0.633,0.035,1.03c0.023,0.398,0.109,0.777,0.254,1.139c0.145,0.362,0.373,0.669,0.687,0.922
		c0.313,0.253,0.759,0.38,1.337,0.38c0.579,0,1.024-0.126,1.338-0.38c0.312-0.253,0.543-0.56,0.688-0.922
		c0.145-0.361,0.229-0.741,0.252-1.139c0.024-0.397,0.037-0.742,0.037-1.031V67.147z"/>
	<path fill="#808080" d="M226.001,19.901v62.468h-4.628V19.901H226.001z"/>
	<path fill="#808080" d="M243.006,67.147c0-2.555-0.133-4.748-0.396-6.58c-0.265-1.832-0.613-3.429-1.046-4.791
		s-0.945-2.533-1.537-3.512s-1.165-1.929-1.72-2.846s-1.104-1.825-1.646-2.722s-1.029-1.912-1.464-3.045
		c-0.434-1.133-0.783-2.44-1.048-3.922c-0.266-1.482-0.397-3.259-0.397-5.333v-8.712c0-0.579,0.09-1.235,0.271-1.97
		c0.181-0.735,0.524-1.422,1.03-2.061c0.506-0.638,1.211-1.181,2.115-1.627c0.903-0.446,2.078-0.669,3.524-0.669
		s2.621,0.223,3.524,0.669c0.904,0.446,1.609,0.989,2.115,1.627c0.506,0.639,0.85,1.326,1.03,2.061
		c0.181,0.735,0.271,1.392,0.271,1.97V41.88h-4.627V25.685c0-0.579-0.066-1.054-0.198-1.428c-0.133-0.373-0.308-0.663-0.524-0.868
		c-0.217-0.204-0.465-0.349-0.741-0.434c-0.277-0.084-0.561-0.126-0.85-0.126s-0.572,0.042-0.85,0.126s-0.524,0.228-0.741,0.433
		s-0.392,0.493-0.524,0.866c-0.132,0.373-0.198,0.848-0.198,1.424v7.035c0,2.718,0.233,4.99,0.702,6.818
		c0.469,1.828,1.055,3.421,1.757,4.78c0.703,1.359,1.413,2.617,2.132,3.774c0.717,1.157,1.46,2.355,2.229,3.593
		c0.769,1.239,1.366,2.709,1.794,4.412c0.427,1.702,0.641,3.821,0.641,6.355v14.125c0,0.29-0.036,0.815-0.108,1.575
		c-0.072,0.761-0.325,1.54-0.759,2.336s-1.121,1.503-2.061,2.119s-2.277,0.923-4.013,0.923s-3.073-0.307-4.013-0.922
		c-0.939-0.614-1.627-1.319-2.061-2.115s-0.687-1.572-0.759-2.332s-0.108-1.283-0.108-1.573V55.762h4.627v20.822
		c0,0.29,0.012,0.633,0.036,1.03c0.023,0.398,0.108,0.777,0.253,1.139c0.145,0.362,0.373,0.669,0.687,0.922
		c0.313,0.253,0.76,0.38,1.338,0.38s1.024-0.126,1.338-0.38c0.312-0.253,0.542-0.56,0.687-0.922
		c0.145-0.361,0.229-0.741,0.253-1.139c0.023-0.397,0.036-0.742,0.036-1.031V67.147z"/>
</g>
<path fill="#F8CB00" d="M35.548,33.689c11.655,0,21.822,6.333,27.269,15.743c2.679-4.629,4.223-10.002,4.223-15.743
	c0-17.396-14.1-31.496-31.491-31.496c-17.396,0-31.491,14.099-31.491,31.496c0,5.741,1.538,11.113,4.223,15.743
	C13.727,40.022,23.893,33.689,35.548,33.689"/>
<path fill="#FFFFFF" d="M35.548,33.689v1.583c11.07,0,20.722,6.012,25.899,14.954l1.369,2.365l1.369-2.367
	c2.814-4.86,4.437-10.511,4.437-16.535C68.617,15.417,53.815,0.612,35.548,0.609C17.276,0.612,2.475,15.419,2.475,33.689
	c0,6.024,1.617,11.675,4.436,16.537l1.369,2.365l1.369-2.365c5.177-8.942,14.83-14.954,25.899-14.954V33.689v-1.583
	c-12.241,0-22.923,6.654-28.638,16.532l1.369,0.794l1.369-0.794c-2.55-4.398-4.009-9.492-4.009-14.948
	c0-8.268,3.344-15.736,8.759-21.153c5.416-5.415,12.882-8.76,21.149-8.76c8.263,0,15.731,3.346,21.147,8.76
	c5.415,5.417,8.762,12.885,8.762,21.153c0,5.457-1.465,10.55-4.01,14.952l1.369,0.791l1.369-0.794
	c-5.716-9.877-16.4-16.532-28.638-16.532V33.689"/>
<path fill="#326F96" d="M67.04,65.18c0-5.741-1.544-11.113-4.223-15.749C57.371,58.847,47.204,65.18,35.548,65.18
	S13.727,58.847,8.28,49.432C5.595,54.067,4.057,59.439,4.057,65.18c0,17.396,14.096,31.491,31.491,31.491
	C52.94,96.671,67.04,82.576,67.04,65.18"/>
<path fill="#FFFFFF" d="M67.04,65.18h1.583c0-6.025-1.622-11.676-4.437-16.54l-1.369-2.371l-1.369,2.371
	c-5.181,8.944-14.829,14.956-25.899,14.956c-11.069,0-20.723-6.012-25.899-14.956L8.28,46.272l-1.369,2.365
	C4.092,53.504,2.475,59.155,2.475,65.18c0,18.27,14.803,33.074,33.073,33.074c18.265-0.003,33.068-14.802,33.074-33.074H67.04
	h-1.582c0,8.264-3.347,15.732-8.762,21.149c-5.416,5.414-12.885,8.758-21.147,8.758c-8.268,0-15.733-3.344-21.149-8.758
	C8.984,80.913,5.64,73.447,5.64,65.18c0-5.458,1.459-10.551,4.009-14.954L8.28,49.432l-1.369,0.792
	c5.715,9.885,16.396,16.54,28.638,16.54c12.237,0,22.922-6.654,28.638-16.54l-1.369-0.792l-1.369,0.792
	c2.545,4.406,4.01,9.499,4.01,14.957H67.04"/>
<path fill="#A6A8AB" d="M35.548,65.18c11.655,0,21.822-6.333,27.269-15.749c-5.446-9.41-15.613-15.743-27.269-15.743
	S13.727,40.022,8.28,49.432C13.727,58.847,23.893,65.18,35.548,65.18"/>
<path fill="#FFFFFF" d="M35.548,65.18v1.583c12.237,0,22.922-6.654,28.638-16.54l0.458-0.792l-0.458-0.794
	c-5.716-9.877-16.4-16.532-28.638-16.532c-12.241,0-22.923,6.654-28.638,16.532L6.45,49.432l0.461,0.792
	c5.715,9.885,16.396,16.54,28.638,16.54V65.18v-1.583c-11.069,0-20.723-6.012-25.899-14.956L8.28,49.432l1.369,0.794
	c5.177-8.942,14.83-14.954,25.899-14.954c11.07,0,20.722,6.012,25.899,14.954l1.369-0.794l-1.369-0.791
	c-5.181,8.944-14.829,14.956-25.899,14.956V65.18"/>
<path fill="#006C29" d="M35.548,35.272c-10.743,0-20.144,5.658-25.425,14.16c5.281,8.506,14.682,14.165,25.425,14.165l0,0
	c10.742,0,20.145-5.659,25.422-14.165C55.693,40.93,46.291,35.272,35.548,35.272"/>
<path fill="#FFFFFF" d="M10.124,49.432c5.281-8.501,14.682-14.16,25.425-14.16c10.742,0,20.145,5.658,25.422,14.16l0,0l0,0
	c-5.277,8.506-14.68,14.165-25.422,14.165l0,0C24.805,63.597,15.405,57.938,10.124,49.432L10.124,49.432L10.124,49.432
	 M35.548,32.105c-11.281,0-21.243,5.653-27.207,14.274c-0.507,0.731-0.983,1.483-1.431,2.257l0,0L6.45,49.432l0.461,0.792
	c5.715,9.885,16.396,16.54,28.638,16.54l0,0c12.237,0,22.922-6.654,28.638-16.54l0.458-0.792l-0.458-0.794
	c-0.004-0.009-0.008-0.022-0.02-0.034c-0.438-0.762-0.912-1.501-1.414-2.223c-0.02-0.038-0.05-0.072-0.07-0.11
	C56.706,37.711,46.781,32.105,35.548,32.105"/>
</svg>
